<svg width="138" height="70" viewBox="0 0 138 70" fill="none" xmlns="http://www.w3.org/2000/svg">
<path d="M56.7806 4.14043L57.292 38.2617L68.797 31.5223V11.1255L56.7806 4.14043Z" fill="#283878"/>
<path d="M70.9852 17.8277L71.083 32.4681L58.3071 40.0191L69.7445 46.4457L82.5278 39.0809V24.5372L70.9852 17.8277Z" fill="#283878"/>
<path d="M19.0721 64.4681V56.0031H22.0316C22.6213 56.0031 23.1076 56.105 23.4906 56.309C23.8737 56.5101 24.1589 56.7815 24.3462 57.1232C24.5336 57.4621 24.6273 57.8383 24.6273 58.2516C24.6273 58.6153 24.5625 58.9157 24.433 59.1527C24.3063 59.3896 24.1382 59.577 23.9288 59.7148C23.7221 59.8526 23.4975 59.9545 23.255 60.0207V60.1033C23.5141 60.1199 23.7745 60.2108 24.0362 60.3761C24.298 60.5414 24.5171 60.7784 24.6934 61.087C24.8698 61.3957 24.958 61.7732 24.958 62.2196C24.958 62.6439 24.8615 63.0256 24.6686 63.3645C24.4757 63.7034 24.1713 63.9721 23.7552 64.1705C23.3391 64.3689 22.7976 64.4681 22.1308 64.4681H19.0721ZM20.0972 63.5588H22.1308C22.8004 63.5588 23.2757 63.4292 23.5568 63.1702C23.8406 62.9084 23.9825 62.5916 23.9825 62.2196C23.9825 61.933 23.9095 61.6685 23.7634 61.426C23.6174 61.1807 23.4094 60.9851 23.1393 60.839C22.8693 60.6902 22.5496 60.6158 22.1804 60.6158H20.0972V63.5588ZM20.0972 59.7231H21.9985C22.3071 59.7231 22.5854 59.6624 22.8334 59.5412C23.0842 59.4199 23.2826 59.2491 23.4286 59.0287C23.5774 58.8082 23.6518 58.5492 23.6518 58.2516C23.6518 57.8796 23.5223 57.5641 23.2633 57.3051C23.0043 57.0433 22.5937 56.9124 22.0316 56.9124H20.0972V59.7231ZM26.6423 64.4681V56.0031H29.6017C30.1914 56.0031 30.6778 56.105 31.0608 56.309C31.4438 56.5101 31.729 56.7815 31.9164 57.1232C32.1037 57.4621 32.1974 57.8383 32.1974 58.2516C32.1974 58.6153 32.1327 58.9157 32.0032 59.1527C31.8764 59.3896 31.7083 59.577 31.4989 59.7148C31.2922 59.8526 31.0677 59.9545 30.8252 60.0207V60.1033C31.0842 60.1199 31.3446 60.2108 31.6064 60.3761C31.8681 60.5414 32.0872 60.7784 32.2636 61.087C32.4399 61.3957 32.5281 61.7732 32.5281 62.2196C32.5281 62.6439 32.4316 63.0256 32.2388 63.3645C32.0459 63.7034 31.7414 63.9721 31.3253 64.1705C30.9092 64.3689 30.3678 64.4681 29.7009 64.4681H26.6423ZM27.6673 63.5588H29.7009C30.3705 63.5588 30.8458 63.4292 31.1269 63.1702C31.4107 62.9084 31.5526 62.5916 31.5526 62.2196C31.5526 61.933 31.4796 61.6685 31.3336 61.426C31.1875 61.1807 30.9795 60.9851 30.7094 60.839C30.4394 60.6902 30.1198 60.6158 29.7505 60.6158H27.6673V63.5588ZM27.6673 59.7231H29.5687C29.8773 59.7231 30.1556 59.6624 30.4036 59.5412C30.6543 59.4199 30.8527 59.2491 30.9988 59.0287C31.1476 58.8082 31.222 58.5492 31.222 58.2516C31.222 57.8796 31.0925 57.5641 30.8334 57.3051C30.5744 57.0433 30.1638 56.9124 29.6017 56.9124H27.6673V59.7231ZM39.7676 56.0031H40.7926V61.6078C40.7926 62.1865 40.6562 62.7032 40.3834 63.1578C40.1134 63.6097 39.7317 63.9666 39.2385 64.2283C38.7453 64.4874 38.1666 64.6169 37.5025 64.6169C36.8384 64.6169 36.2598 64.4874 35.7665 64.2283C35.2733 63.9666 34.8903 63.6097 34.6175 63.1578C34.3474 62.7032 34.2124 62.1865 34.2124 61.6078V56.0031H35.2375V61.5252C35.2375 61.9385 35.3284 62.3064 35.5103 62.6288C35.6921 62.9484 35.9512 63.2005 36.2873 63.3852C36.6263 63.567 37.0313 63.658 37.5025 63.658C37.9737 63.658 38.3788 63.567 38.7177 63.3852C39.0566 63.2005 39.3157 62.9484 39.4948 62.6288C39.6766 62.3064 39.7676 61.9385 39.7676 61.5252V56.0031ZM42.8396 64.4681V56.0031H45.6999C46.3612 56.0031 46.904 56.1161 47.3284 56.342C47.7527 56.5652 48.0669 56.8725 48.2708 57.2637C48.4747 57.655 48.5766 58.1 48.5766 58.5988C48.5766 59.0975 48.4747 59.5398 48.2708 59.9256C48.0669 60.3114 47.7541 60.6145 47.3325 60.8349C46.9109 61.0526 46.3722 61.1614 45.7164 61.1614H43.4018V60.2356H45.6833C46.1352 60.2356 46.499 60.1695 46.7745 60.0372C47.0528 59.9049 47.254 59.7175 47.378 59.4751C47.5047 59.2298 47.5681 58.9377 47.5681 58.5988C47.5681 58.2599 47.5047 57.9636 47.378 57.7101C47.2512 57.4566 47.0487 57.261 46.7704 57.1232C46.4921 56.9827 46.1242 56.9124 45.6668 56.9124H43.8647V64.4681H42.8396ZM46.8241 60.6654L48.9073 64.4681H47.7169L45.6668 60.6654H46.8241ZM56.9972 56.0031V64.4681H56.0052L51.3925 57.8217H51.3098V64.4681H50.2847V56.0031H51.2767L55.906 62.666H55.9887V56.0031H56.9972ZM62.3219 64.4681V56.0031H65.2814C65.871 56.0031 66.3574 56.105 66.7404 56.309C67.1234 56.5101 67.4086 56.7815 67.596 57.1232C67.7834 57.4621 67.8771 57.8383 67.8771 58.2516C67.8771 58.6153 67.8123 58.9157 67.6828 59.1527C67.5561 59.3896 67.388 59.577 67.1785 59.7148C66.9719 59.8526 66.7473 59.9545 66.5048 60.0207V60.1033C66.7638 60.1199 67.0242 60.2108 67.286 60.3761C67.5478 60.5414 67.7669 60.7784 67.9432 61.087C68.1196 61.3957 68.2077 61.7732 68.2077 62.2196C68.2077 62.6439 68.1113 63.0256 67.9184 63.3645C67.7255 63.7034 67.421 63.9721 67.0049 64.1705C66.5889 64.3689 66.0474 64.4681 65.3806 64.4681H62.3219ZM63.347 63.5588H65.3806C66.0502 63.5588 66.5255 63.4292 66.8066 63.1702C67.0904 62.9084 67.2323 62.5916 67.2323 62.2196C67.2323 61.933 67.1593 61.6685 67.0132 61.426C66.8672 61.1807 66.6591 60.9851 66.3891 60.839C66.119 60.6902 65.7994 60.6158 65.4302 60.6158H63.347V63.5588ZM63.347 59.7231H65.2483C65.5569 59.7231 65.8352 59.6624 66.0832 59.5412C66.334 59.4199 66.5324 59.2491 66.6784 59.0287C66.8272 58.8082 66.9016 58.5492 66.9016 58.2516C66.9016 57.8796 66.7721 57.5641 66.5131 57.3051C66.2541 57.0433 65.8435 56.9124 65.2814 56.9124H63.347V59.7231ZM75.4472 56.0031H76.4723V61.6078C76.4723 62.1865 76.3359 62.7032 76.0631 63.1578C75.793 63.6097 75.4114 63.9666 74.9181 64.2283C74.4249 64.4874 73.8462 64.6169 73.1822 64.6169C72.5181 64.6169 71.9394 64.4874 71.4462 64.2283C70.9529 63.9666 70.5699 63.6097 70.2971 63.1578C70.0271 62.7032 69.8921 62.1865 69.8921 61.6078V56.0031H70.9171V61.5252C70.9171 61.9385 71.008 62.3064 71.1899 62.6288C71.3718 62.9484 71.6308 63.2005 71.967 63.3852C72.3059 63.567 72.711 63.658 73.1822 63.658C73.6534 63.658 74.0584 63.567 74.3974 63.3852C74.7363 63.2005 74.9953 62.9484 75.1744 62.6288C75.3563 62.3064 75.4472 61.9385 75.4472 61.5252V56.0031ZM79.5443 56.0031V64.4681H78.5193V56.0031H79.5443ZM81.5996 64.4681V56.0031H82.6247V63.5588H86.5596V64.4681H81.5996ZM90.759 64.4681H88.1468V56.0031H90.8747C91.6959 56.0031 92.3985 56.1726 92.9827 56.5115C93.5669 56.8477 94.0147 57.3313 94.326 57.9623C94.6374 58.5905 94.7931 59.3428 94.7931 60.219C94.7931 61.1008 94.636 61.86 94.3219 62.4965C94.0078 63.1303 93.5504 63.618 92.9497 63.9597C92.3489 64.2986 91.6187 64.4681 90.759 64.4681ZM89.1718 63.5588H90.6929C91.3928 63.5588 91.9728 63.4237 92.433 63.1537C92.8932 62.8836 93.2362 62.4993 93.4622 62.0005C93.6881 61.5017 93.8011 60.9079 93.8011 60.219C93.8011 59.5357 93.6895 58.9474 93.4663 58.4541C93.2431 57.9581 92.9097 57.5779 92.4661 57.3133C92.0224 57.0461 91.4699 56.9124 90.8086 56.9124H89.1718V63.5588ZM96.5126 64.4681V56.0031H101.621V56.9124H97.5376V59.7727H101.357V60.682H97.5376V63.5588H101.687V64.4681H96.5126ZM103.469 64.4681V56.0031H106.329C106.99 56.0031 107.533 56.1161 107.958 56.342C108.382 56.5652 108.696 56.8725 108.9 57.2637C109.104 57.655 109.206 58.1 109.206 58.5988C109.206 59.0975 109.104 59.5398 108.9 59.9256C108.696 60.3114 108.383 60.6145 107.962 60.8349C107.54 61.0526 107.001 61.1614 106.346 61.1614H104.031V60.2356H106.313C106.765 60.2356 107.128 60.1695 107.404 60.0372C107.682 59.9049 107.883 59.7175 108.007 59.4751C108.134 59.2298 108.197 58.9377 108.197 58.5988C108.197 58.2599 108.134 57.9636 108.007 57.7101C107.88 57.4566 107.678 57.261 107.4 57.1232C107.121 56.9827 106.753 56.9124 106.296 56.9124H104.494V64.4681H103.469ZM107.453 60.6654L109.537 64.4681H108.346L106.296 60.6654H107.453ZM115.543 58.1193C115.494 57.7005 115.293 57.3753 114.94 57.1439C114.587 56.9124 114.154 56.7967 113.642 56.7967C113.267 56.7967 112.939 56.8573 112.658 56.9785C112.38 57.0998 112.162 57.2665 112.005 57.4787C111.851 57.6909 111.774 57.932 111.774 58.202C111.774 58.428 111.827 58.6222 111.935 58.7848C112.045 58.9446 112.186 59.0783 112.357 59.1857C112.527 59.2904 112.706 59.3772 112.894 59.4461C113.081 59.5123 113.253 59.566 113.41 59.6073L114.27 59.8388C114.491 59.8967 114.736 59.9766 115.006 60.0785C115.279 60.1805 115.539 60.3196 115.787 60.496C116.038 60.6696 116.245 60.8928 116.407 61.1656C116.57 61.4384 116.651 61.7732 116.651 62.17C116.651 62.6274 116.531 63.0407 116.291 63.41C116.054 63.7792 115.707 64.0727 115.25 64.2903C114.795 64.508 114.243 64.6169 113.592 64.6169C112.986 64.6169 112.461 64.5191 112.018 64.3234C111.577 64.1278 111.229 63.855 110.976 63.505C110.725 63.1551 110.583 62.7486 110.55 62.2857H111.608C111.636 62.6053 111.743 62.8699 111.931 63.0793C112.121 63.286 112.361 63.4403 112.65 63.5422C112.942 63.6414 113.256 63.691 113.592 63.691C113.984 63.691 114.335 63.6276 114.646 63.5009C114.958 63.3714 115.204 63.1923 115.386 62.9636C115.568 62.7321 115.659 62.4621 115.659 62.1534C115.659 61.8724 115.58 61.6437 115.423 61.4673C115.266 61.291 115.06 61.1477 114.803 61.0374C114.547 60.9272 114.27 60.8308 113.973 60.7481L112.931 60.4505C112.27 60.2604 111.746 59.989 111.36 59.6363C110.975 59.2835 110.782 58.822 110.782 58.2516C110.782 57.7776 110.91 57.3643 111.166 57.0116C111.425 56.6561 111.772 56.3806 112.208 56.185C112.646 55.9866 113.135 55.8874 113.675 55.8874C114.221 55.8874 114.706 55.9852 115.13 56.1808C115.554 56.3737 115.89 56.6382 116.138 56.9744C116.389 57.3106 116.521 57.6922 116.535 58.1193H115.543Z" fill="#283878"/>
</svg>
