<svg width="364" height="364" viewBox="0 0 364 364" fill="none" xmlns="http://www.w3.org/2000/svg">
<path d="M182 311.264C259.956 311.264 323.152 307.574 323.152 303.023C323.152 298.471 259.956 294.782 182 294.782C104.044 294.782 40.8477 298.471 40.8477 303.023C40.8477 307.574 104.044 311.264 182 311.264Z" fill="#F5F5F5"/>
<path d="M122.608 143.76C121.967 145.216 121.261 146.788 120.643 148.324C120.024 149.861 119.383 151.44 118.823 153.013C117.672 156.078 116.75 159.224 116.063 162.426L115.852 163.591L115.779 164.027C115.779 164.151 115.779 164.311 115.736 164.457C115.708 165.166 115.723 165.876 115.779 166.583C115.918 168.119 116.165 169.764 116.507 171.409C117.119 174.707 117.898 178.107 118.691 181.456L114.957 182.912C113.216 179.738 111.733 176.43 110.523 173.018C109.886 171.243 109.37 169.426 108.98 167.58C108.761 166.559 108.625 165.522 108.572 164.479C108.572 164.188 108.572 163.911 108.572 163.598C108.572 163.285 108.572 162.935 108.623 162.732L108.769 161.276C108.986 159.4 109.319 157.54 109.766 155.706C110.174 153.886 110.698 152.117 111.222 150.37C111.746 148.623 112.402 146.905 113.093 145.216C113.435 144.371 113.821 143.534 114.156 142.697C114.491 141.86 114.884 141.059 115.35 140.164L122.608 143.76Z" fill="#E4897B"/>
<path d="M118.495 180.473L121.334 183.247L115.139 186.159C115.139 186.159 113.639 183.531 114.68 181.157L118.495 180.473Z" fill="#E4897B"/>
<path d="M123.627 187.374L118.392 189.515L115.146 186.129L121.334 183.247L123.627 187.374Z" fill="#E4897B"/>
<path opacity="0.4" d="M229.66 184.389C219.36 183.233 209.633 179.048 201.711 172.365C193.788 165.681 188.025 156.799 185.15 146.84C182.274 136.882 182.416 126.294 185.557 116.417C188.699 106.539 194.698 97.814 202.797 91.3452C210.896 84.8764 220.731 80.9541 231.059 80.0741C241.386 79.194 251.743 81.3958 260.82 86.4011C269.897 91.4064 277.285 98.9904 282.052 108.194C286.82 117.398 288.751 127.809 287.602 138.111C286.838 144.955 284.734 151.581 281.408 157.612C278.083 163.642 273.602 168.959 268.221 173.256C262.84 177.554 256.665 180.75 250.048 182.66C243.432 184.57 236.504 185.158 229.66 184.389Z" fill="#FAFAFA"/>
<path d="M176.502 112.267L175.811 112.034C177.008 108.499 178.514 105.077 180.31 101.805L180.943 102.155C179.171 105.39 177.685 108.773 176.502 112.267ZM185.34 95.2753L184.75 94.8458C190.733 86.7561 198.563 80.214 207.588 75.7649L207.915 76.4201C198.993 80.8233 191.253 87.2955 185.34 95.2971V95.2753ZM265.122 77.4174C262.743 76.1414 260.281 75.0251 257.754 74.0759L258.016 73.3916C260.568 74.3631 263.054 75.5012 265.456 76.7986L265.122 77.4174Z" fill="#407BFF"/>
<path opacity="0.3" d="M176.502 112.267L175.811 112.034C177.008 108.499 178.514 105.077 180.31 101.805L180.943 102.155C179.171 105.39 177.685 108.773 176.502 112.267ZM185.34 95.2753L184.75 94.8458C190.733 86.7561 198.563 80.214 207.588 75.7649L207.915 76.4201C198.993 80.8233 191.253 87.2955 185.34 95.2971V95.2753ZM265.122 77.4174C262.743 76.1414 260.281 75.0251 257.754 74.0759L258.016 73.3916C260.568 74.3631 263.054 75.5012 265.456 76.7986L265.122 77.4174Z" fill="black"/>
<path d="M289.691 105.526C282.95 91.5445 271.087 80.6937 256.562 75.2226C242.037 69.7514 225.964 70.0796 211.674 76.139C197.384 82.1984 185.975 93.5243 179.81 107.769C173.645 122.013 173.198 138.084 178.562 152.649C173.699 154.352 168.894 156.18 164.118 158.065C157.231 160.798 150.408 163.651 143.647 166.627C136.891 169.619 130.164 172.669 123.503 175.858C120.162 177.423 116.864 179.075 113.537 180.677C111.806 181.421 110.238 182.497 108.921 183.844C108.209 184.59 107.581 185.413 107.05 186.297C106.402 187.343 105.912 188.479 105.594 189.668C105.047 191.81 105.283 194.078 106.262 196.061C107.241 198.043 108.897 199.61 110.931 200.479C112.06 200.952 113.251 201.261 114.469 201.396C115.497 201.512 116.535 201.512 117.563 201.396C119.431 201.169 121.236 200.578 122.877 199.656C126.175 197.989 129.495 196.38 132.771 194.669C139.323 191.328 145.875 187.84 152.346 184.302C158.818 180.764 165.298 177.059 171.617 173.259C175.985 170.616 180.396 167.915 184.721 165.09C193.024 178.199 206.053 187.611 221.107 191.375C236.161 195.14 252.086 192.968 265.583 185.311C279.079 177.653 289.113 165.097 293.604 150.243C298.094 135.39 296.699 119.378 289.706 105.526H289.691ZM256.596 175.071C248.136 179.247 238.627 180.821 229.273 179.593C219.918 178.365 211.137 174.391 204.041 168.173C196.945 161.956 191.852 153.773 189.406 144.661C186.96 135.549 187.271 125.916 190.299 116.98C193.328 108.045 198.938 100.208 206.42 94.4603C213.902 88.7129 222.92 85.3132 232.335 84.691C241.749 84.0688 251.136 86.2521 259.31 90.9649C267.484 95.6776 274.076 102.708 278.254 111.168C281.029 116.785 282.67 122.895 283.083 129.147C283.496 135.399 282.673 141.671 280.662 147.606C278.651 153.54 275.49 159.02 271.361 163.732C267.232 168.445 262.215 172.298 256.596 175.071Z" fill="#407BFF"/>
<path opacity="0.3" d="M289.691 105.526C282.95 91.5445 271.087 80.6937 256.562 75.2226C242.037 69.7514 225.964 70.0796 211.674 76.139C197.384 82.1984 185.975 93.5243 179.81 107.769C173.645 122.013 173.198 138.084 178.562 152.649C173.699 154.352 168.894 156.18 164.118 158.065C157.231 160.798 150.408 163.651 143.647 166.627C136.891 169.619 130.164 172.669 123.503 175.858C120.162 177.423 116.864 179.075 113.537 180.677C111.806 181.421 110.238 182.497 108.921 183.844C108.209 184.59 107.581 185.413 107.05 186.297C106.402 187.343 105.912 188.479 105.594 189.668C105.047 191.81 105.283 194.078 106.262 196.061C107.241 198.043 108.897 199.61 110.931 200.479C112.06 200.952 113.251 201.261 114.469 201.396C115.497 201.512 116.535 201.512 117.563 201.396C119.431 201.169 121.236 200.578 122.877 199.656C126.175 197.989 129.495 196.38 132.771 194.669C139.323 191.328 145.875 187.84 152.346 184.302C158.818 180.764 165.298 177.059 171.617 173.259C175.985 170.616 180.396 167.915 184.721 165.09C193.024 178.199 206.053 187.611 221.107 191.375C236.161 195.14 252.086 192.968 265.583 185.311C279.079 177.653 289.113 165.097 293.604 150.243C298.094 135.39 296.699 119.378 289.706 105.526H289.691ZM256.596 175.071C248.136 179.247 238.627 180.821 229.273 179.593C219.918 178.365 211.137 174.391 204.041 168.173C196.945 161.956 191.852 153.773 189.406 144.661C186.96 135.549 187.271 125.916 190.299 116.98C193.328 108.045 198.938 100.208 206.42 94.4603C213.902 88.7129 222.92 85.3132 232.335 84.691C241.749 84.0688 251.136 86.2521 259.31 90.9649C267.484 95.6776 274.076 102.708 278.254 111.168C281.029 116.785 282.67 122.895 283.083 129.147C283.496 135.399 282.673 141.671 280.662 147.606C278.651 153.54 275.49 159.02 271.361 163.732C267.232 168.445 262.215 172.298 256.596 175.071Z" fill="black"/>
<path d="M142.729 117.763C142.729 118.193 142.955 118.542 143.239 118.542C143.523 118.542 143.749 118.193 143.749 117.763C143.749 117.334 143.523 116.984 143.239 116.984C142.955 116.984 142.729 117.363 142.729 117.763Z" fill="#263238"/>
<path d="M142.934 118.542C143.449 119.86 144.142 121.102 144.994 122.233C144.699 122.444 144.362 122.587 144.006 122.654C143.651 122.721 143.284 122.709 142.934 122.619V118.542Z" fill="#DE5753"/>
<path d="M141.223 115.368C141.182 115.368 141.142 115.359 141.105 115.341C141.069 115.324 141.037 115.298 141.011 115.266C140.974 115.21 140.958 115.142 140.969 115.076C140.98 115.01 141.016 114.95 141.07 114.909C141.39 114.666 141.765 114.504 142.162 114.437C142.558 114.37 142.966 114.399 143.348 114.523C143.383 114.533 143.415 114.549 143.442 114.572C143.47 114.594 143.493 114.622 143.509 114.654C143.525 114.686 143.534 114.721 143.536 114.756C143.538 114.792 143.532 114.828 143.519 114.861C143.506 114.894 143.487 114.924 143.462 114.949C143.436 114.975 143.406 114.994 143.373 115.007C143.34 115.02 143.304 115.026 143.269 115.024C143.233 115.022 143.198 115.013 143.166 114.997C142.862 114.903 142.54 114.884 142.227 114.941C141.914 114.998 141.62 115.13 141.368 115.324C141.325 115.353 141.274 115.368 141.223 115.368Z" fill="#263238"/>
<path d="M128.024 121.003C128.752 124.912 129.553 132.083 126.815 134.697C126.815 134.697 127.886 138.664 135.158 138.664C143.166 138.664 138.973 134.697 138.973 134.697C134.605 133.648 134.729 130.416 135.486 127.373L128.024 121.003Z" fill="#E4897B"/>
<path d="M123.547 136.757C124.413 135.41 122.957 132.141 122.957 132.141C122.957 132.141 135.828 128.901 141.092 133.874C142.184 134.9 140.975 136.414 140.975 136.414L123.547 136.757Z" fill="#407BFF"/>
<path opacity="0.1" d="M123.547 136.757C124.413 135.41 122.957 132.141 122.957 132.141C122.957 132.141 135.828 128.901 141.092 133.874C142.184 134.9 140.975 136.414 140.975 136.414L123.547 136.757Z" fill="black"/>
<path d="M102.253 285.291C101.576 285.291 100.491 284.162 100.171 283.74C100.157 283.72 100.149 283.695 100.149 283.671C100.149 283.646 100.157 283.622 100.171 283.602C100.182 283.581 100.199 283.564 100.22 283.553C100.24 283.541 100.264 283.536 100.287 283.536C100.367 283.536 102.151 283.696 102.638 284.33C102.691 284.397 102.729 284.474 102.749 284.557C102.77 284.64 102.771 284.726 102.755 284.81C102.749 284.919 102.709 285.022 102.641 285.107C102.573 285.192 102.481 285.253 102.376 285.283L102.253 285.291ZM100.564 283.835C101.095 284.446 101.947 285.138 102.311 285.05C102.311 285.05 102.456 285.014 102.5 284.781C102.51 284.732 102.508 284.682 102.496 284.634C102.483 284.586 102.46 284.542 102.427 284.504C101.888 284.096 101.239 283.858 100.564 283.82V283.835Z" fill="#407BFF"/>
<path d="M100.644 283.82C100.514 283.833 100.382 283.833 100.251 283.82C100.228 283.818 100.206 283.81 100.188 283.795C100.17 283.781 100.157 283.762 100.149 283.74C100.139 283.72 100.134 283.697 100.134 283.674C100.134 283.652 100.139 283.629 100.149 283.609C100.2 283.565 101.27 282.451 102.079 282.451C102.175 282.449 102.271 282.467 102.36 282.505C102.45 282.543 102.53 282.599 102.595 282.67C102.668 282.73 102.718 282.814 102.736 282.907C102.755 282.999 102.741 283.095 102.697 283.179C102.486 283.587 101.372 283.82 100.644 283.82ZM100.55 283.565C101.278 283.565 102.333 283.34 102.508 283.019C102.508 283.019 102.559 282.925 102.443 282.808C102.4 282.762 102.348 282.726 102.29 282.702C102.233 282.678 102.17 282.667 102.108 282.67C101.511 282.807 100.968 283.118 100.55 283.565Z" fill="#407BFF"/>
<path d="M150.293 301.816C149.742 301.812 149.191 301.761 148.648 301.663C148.621 301.658 148.597 301.643 148.58 301.622C148.562 301.601 148.553 301.574 148.553 301.547C148.549 301.522 148.553 301.496 148.563 301.472C148.573 301.449 148.59 301.429 148.612 301.416C148.692 301.372 150.555 300.302 151.451 300.549C151.534 300.568 151.612 300.604 151.681 300.654C151.75 300.704 151.808 300.767 151.851 300.841C151.908 300.921 151.939 301.018 151.939 301.117C151.939 301.216 151.908 301.313 151.851 301.394C151.64 301.721 150.978 301.816 150.293 301.816ZM149.063 301.474C150.053 301.619 151.407 301.612 151.655 301.263C151.691 301.219 151.72 301.139 151.655 300.986C151.599 300.895 151.51 300.83 151.407 300.804C150.839 300.659 149.711 301.139 149.063 301.474Z" fill="#407BFF"/>
<path d="M148.677 301.671C148.654 301.677 148.628 301.677 148.605 301.671C148.584 301.658 148.569 301.639 148.56 301.617C148.55 301.595 148.548 301.57 148.554 301.547C148.603 300.789 148.894 300.067 149.384 299.487C149.483 299.401 149.599 299.338 149.725 299.302C149.85 299.265 149.982 299.256 150.112 299.275C150.461 299.275 150.563 299.487 150.585 299.625C150.679 300.229 149.405 301.387 148.757 301.678L148.677 301.671ZM149.981 299.487C149.82 299.485 149.665 299.542 149.544 299.647C149.132 300.107 148.877 300.685 148.816 301.299C149.471 300.899 150.345 299.996 150.272 299.632C150.272 299.632 150.272 299.508 150.024 299.487H149.981Z" fill="#407BFF"/>
<path d="M142.795 301.54H148.146L148.677 289.156H143.326L142.795 301.54Z" fill="#E4897B"/>
<path d="M95.1475 280.282L99.6174 283.208L109.489 274.873L105.012 271.939L95.1475 280.282Z" fill="#E4897B"/>
<path d="M100.353 282.932L95.7083 279.124C95.6262 279.057 95.5233 279.02 95.4171 279.02C95.3109 279.02 95.2079 279.057 95.1259 279.124L91.2966 282.131C91.2041 282.205 91.1294 282.298 91.078 282.405C91.0267 282.511 91 282.628 91 282.746C91 282.864 91.0267 282.981 91.078 283.088C91.1294 283.194 91.2041 283.288 91.2966 283.361C92.9419 284.664 93.8082 285.218 95.8539 286.892C97.1133 287.919 100.222 291.064 101.976 292.483C103.731 293.903 105.34 292.374 104.757 291.639C102.144 288.326 101.117 285.494 100.819 283.74C100.767 283.423 100.602 283.135 100.353 282.932Z" fill="#263238"/>
<path d="M148.11 300.921H142.286C142.18 300.921 142.077 300.957 141.994 301.023C141.91 301.089 141.852 301.182 141.827 301.285L140.772 306.039C140.745 306.154 140.745 306.274 140.772 306.389C140.799 306.504 140.851 306.612 140.925 306.704C141 306.795 141.094 306.869 141.201 306.919C141.308 306.969 141.425 306.994 141.544 306.992C143.647 306.956 146.69 306.832 149.34 306.832C152.434 306.832 155.113 307 158.739 307C160.923 307 161.549 304.779 160.624 304.583C156.446 303.665 153.024 303.571 149.413 301.336C149.026 301.079 148.575 300.936 148.11 300.921Z" fill="#263238"/>
<path d="M116.274 136.291C111.637 138.475 108.994 153.108 108.994 153.108L120.329 157.629C121.988 153.577 123.329 149.403 124.34 145.143C125.898 138.402 121.021 134.034 116.274 136.291Z" fill="#263238"/>
<path d="M122.287 144.539C119.484 147.378 118.203 152.94 117.643 156.558L120.358 157.643C121.97 153.707 123.284 149.655 124.289 145.522C124.049 143.979 123.452 143.36 122.287 144.539Z" fill="#203048"/>
<path d="M147.199 136.189C147.199 136.189 152.892 142.624 147.52 182.417H118.917C118.72 178.049 121.479 156.609 117.242 135.92C120.403 135.307 123.601 134.903 126.815 134.711C130.864 134.471 134.924 134.471 138.973 134.711C141.749 134.99 144.5 135.485 147.199 136.189Z" fill="#263238"/>
<path d="M149.813 151.637L144.994 143.331C144.064 147.206 143.684 151.194 143.865 155.175C143.997 158.029 146.61 168.599 148.961 170.143C149.585 163.995 149.87 157.817 149.813 151.637Z" fill="#203048"/>
<path d="M150.483 141.875C151.211 145.413 151.939 149.038 152.718 152.591C153.497 156.143 154.305 159.711 155.244 163.154C155.484 164.006 155.71 164.879 155.972 165.695L156.169 166.321L156.263 166.634V166.597C156.212 166.532 156.154 166.525 156.198 166.597C156.497 166.924 156.88 167.163 157.304 167.289C157.993 167.545 158.701 167.742 159.423 167.879C162.865 168.424 166.35 168.651 169.833 168.556L170.525 172.516C169.549 172.829 168.639 173.055 167.678 173.28C166.717 173.506 165.771 173.695 164.803 173.841C162.799 174.175 160.768 174.311 158.738 174.249C157.61 174.218 156.488 174.072 155.39 173.812C153.993 173.506 152.681 172.897 151.546 172.028C150.805 171.43 150.193 170.687 149.748 169.844C149.631 169.626 149.529 169.378 149.435 169.167L149.304 168.825L149.034 168.097C148.663 167.173 148.357 166.263 148.022 165.353C146.792 161.713 145.766 158.036 144.863 154.367C143.96 150.698 143.181 147.036 142.533 143.272L150.483 141.875Z" fill="#E4897B"/>
<path d="M140.058 140.091C138.552 144.976 144.659 159.543 144.659 159.543L156.824 156.485C156.824 156.485 156.358 148.914 153.585 142.908C149.406 133.852 141.864 134.231 140.058 140.091Z" fill="#263238"/>
<path d="M169.732 168.556L175.789 168.403L172.877 174.707C172.877 174.707 170.409 175.035 168.385 171.708L166.252 169.16L168.705 168.672C169.043 168.601 169.387 168.562 169.732 168.556Z" fill="#E4897B"/>
<path d="M179.61 169.575L176.145 174.802L172.876 174.707L175.788 168.403L179.61 169.575Z" fill="#E4897B"/>
<path d="M148.677 289.156L148.401 295.541H143.05L143.326 289.156H148.677Z" fill="#CE6F64"/>
<path d="M105.013 271.939L109.49 274.873L104.394 279.168L99.9238 276.241L105.013 271.939Z" fill="#CE6F64"/>
<path d="M128.359 116.839C128.68 122.131 128.6 125.254 131.271 127.97C135.29 132.068 141.835 129.644 143.101 124.33C144.244 119.569 143.531 111.706 138.348 109.595C137.204 109.133 135.962 108.97 134.737 109.12C133.513 109.27 132.347 109.728 131.349 110.453C130.35 111.177 129.552 112.143 129.029 113.26C128.507 114.377 128.276 115.608 128.359 116.839Z" fill="#E4897B"/>
<path d="M122.128 115.907C123.446 120.733 126.547 126.295 130.558 126.652C135.538 127.089 137.787 121.942 138.442 116.627C141.427 114.582 139.862 112.332 142.854 112.048C146.698 111.684 145.468 104.652 140.408 103.523C140.408 103.523 142.104 106.69 138.544 105.088C135.159 103.48 131.397 102.827 127.668 103.203C127.668 103.203 132.211 105.474 127.77 106.486C123.329 107.498 122.004 110.235 124.05 111.888C124.05 111.895 121.262 112.732 122.128 115.907Z" fill="#263238"/>
<path d="M135.406 117.719C135.504 119.035 136.033 120.281 136.913 121.265C138.078 122.553 139.293 121.752 139.497 120.187C139.687 118.782 139.301 116.416 137.874 115.703C136.447 114.989 135.311 116.132 135.406 117.719Z" fill="#E4897B"/>
<path d="M137.372 182.417C137.372 182.417 142.584 220.164 138.478 235.292C131.97 259.243 107.087 279.459 107.087 279.459L98.6494 273.927C98.6494 273.927 119.841 256.855 122.433 236.799C124.763 218.795 118.917 197.021 118.917 182.41L137.372 182.417Z" fill="#407BFF"/>
<path opacity="0.1" d="M137.372 182.417C137.372 182.417 142.584 220.164 138.478 235.292C131.97 259.243 107.087 279.459 107.087 279.459L98.6494 273.927C98.6494 273.927 119.841 256.855 122.433 236.799C124.763 218.795 118.917 197.021 118.917 182.41L137.372 182.417Z" fill="black"/>
<path d="M139.526 203.995C138.139 202.405 136.611 200.943 134.962 199.627C135.85 211.879 136.578 230.028 135.77 242.921C136.856 240.449 137.762 237.902 138.478 235.299C140.48 227.91 140.269 215.148 139.526 203.995Z" fill="#407BFF"/>
<path opacity="0.3" d="M139.526 203.995C138.139 202.405 136.611 200.943 134.962 199.627C135.85 211.879 136.578 230.028 135.77 242.921C136.856 240.449 137.762 237.902 138.478 235.299C140.48 227.91 140.269 215.148 139.526 203.995Z" fill="black"/>
<path d="M110.487 277.574C110.524 277.574 107.218 279.758 107.218 279.758L98.002 273.715L100.914 271.306L110.487 277.574Z" fill="#407BFF"/>
<path opacity="0.3" d="M110.487 277.574C110.524 277.574 107.218 279.758 107.218 279.758L98.002 273.715L100.914 271.306L110.487 277.574Z" fill="black"/>
<path d="M147.52 182.417C147.52 182.417 155.572 216.56 156.14 232.875C156.78 251.162 150.396 294.303 150.396 294.303H141.332C141.332 294.303 140.218 250.827 139.818 234.171C139.374 216.007 128.716 182.417 128.716 182.417H147.52Z" fill="#407BFF"/>
<path opacity="0.1" d="M147.52 182.417C147.52 182.417 155.572 216.56 156.14 232.875C156.78 251.162 150.396 294.303 150.396 294.303H141.332C141.332 294.303 140.218 250.827 139.818 234.171C139.374 216.007 128.716 182.417 128.716 182.417H147.52Z" fill="black"/>
<path d="M152.136 290.7C152.179 290.7 151.626 294.456 151.626 294.456H140.604L140.306 291.1L152.136 290.7Z" fill="#407BFF"/>
<path opacity="0.3" d="M152.136 290.7C152.179 290.7 151.626 294.456 151.626 294.456H140.604L140.306 291.1L152.136 290.7Z" fill="black"/>
<path d="M259.167 147.267C259.786 147.849 260.274 148.345 260.783 148.898C261.293 149.451 261.773 149.99 262.239 150.55C263.186 151.664 264.074 152.836 264.933 154.016C266.649 156.381 268.175 158.879 269.498 161.485L269.767 162.016C269.898 162.274 270.008 162.541 270.095 162.817C270.27 163.35 270.378 163.903 270.415 164.462C270.462 165.45 270.326 166.437 270.014 167.374C269.483 168.932 268.693 170.389 267.678 171.684C265.848 174.034 263.691 176.108 261.271 177.843L259.458 175.761C260.31 174.764 261.198 173.693 261.992 172.623C262.799 171.586 263.529 170.491 264.176 169.347C264.78 168.349 265.227 167.264 265.501 166.13C265.595 165.724 265.612 165.304 265.552 164.892C265.526 164.753 265.482 164.619 265.421 164.492C265.394 164.436 265.362 164.382 265.326 164.331L265.093 163.938C263.689 161.649 262.166 159.435 260.529 157.306C259.721 156.236 258.854 155.21 257.981 154.198C257.551 153.688 257.107 153.193 256.663 152.698C256.219 152.203 255.738 151.708 255.353 151.322L259.167 147.267Z" fill="#E4897B"/>
<path d="M260.158 175.15L254.72 174.262L257.566 179.023C257.566 179.023 261.068 178.899 262.065 176.839L260.158 175.15Z" fill="#E4897B"/>
<path d="M250.701 176.46L253.293 180.326L257.566 179.023L254.72 174.262L250.701 176.46Z" fill="#E4897B"/>
<path d="M259.896 299.412C259.526 299.444 259.157 299.343 258.855 299.128C258.764 299.042 258.696 298.934 258.659 298.814C258.622 298.694 258.617 298.566 258.644 298.444C258.649 298.366 258.675 298.29 258.72 298.226C258.765 298.162 258.827 298.111 258.899 298.08C259.532 297.796 261.192 298.859 261.381 298.982C261.403 298.996 261.419 299.016 261.428 299.039C261.438 299.063 261.439 299.089 261.432 299.113C261.429 299.138 261.419 299.162 261.402 299.18C261.384 299.199 261.362 299.211 261.337 299.215C260.866 299.335 260.382 299.401 259.896 299.412ZM259.168 298.284C259.115 298.275 259.061 298.275 259.008 298.284C258.976 298.299 258.948 298.322 258.929 298.352C258.91 298.381 258.899 298.416 258.899 298.451C258.879 298.532 258.881 298.617 258.904 298.697C258.927 298.778 258.97 298.851 259.03 298.91C259.306 299.157 260.02 299.194 260.973 299.004C260.427 298.643 259.813 298.398 259.168 298.284Z" fill="#407BFF"/>
<path d="M261.351 299.208H261.286C260.769 298.91 259.772 297.752 259.895 297.119C259.919 297.019 259.974 296.929 260.053 296.864C260.132 296.798 260.23 296.76 260.332 296.755C260.43 296.741 260.531 296.749 260.625 296.779C260.72 296.809 260.806 296.861 260.878 296.929C261.475 297.454 261.482 299.026 261.482 299.113C261.481 299.136 261.474 299.157 261.463 299.176C261.451 299.195 261.436 299.211 261.417 299.223L261.351 299.208ZM260.419 297.024H260.361C260.201 297.024 260.165 297.111 260.15 297.177C260.077 297.548 260.696 298.436 261.213 298.851C261.226 298.241 261.05 297.641 260.711 297.133C260.667 297.093 260.615 297.062 260.559 297.043C260.502 297.024 260.442 297.018 260.383 297.024H260.419Z" fill="#407BFF"/>
<path d="M235.085 299.412C234.62 299.456 234.154 299.338 233.767 299.077C233.68 299 233.613 298.902 233.571 298.793C233.529 298.684 233.514 298.567 233.527 298.451C233.532 298.38 233.554 298.312 233.592 298.252C233.631 298.192 233.683 298.143 233.745 298.109C234.422 297.73 236.592 298.837 236.839 298.975C236.862 298.99 236.88 299.01 236.892 299.035C236.903 299.059 236.908 299.087 236.905 299.113C236.901 299.139 236.889 299.162 236.87 299.181C236.852 299.199 236.829 299.211 236.803 299.215C236.238 299.335 235.663 299.401 235.085 299.412ZM234.117 298.283C234.033 298.278 233.95 298.296 233.876 298.334C233.85 298.347 233.828 298.366 233.813 298.391C233.797 298.415 233.789 298.444 233.789 298.473C233.778 298.549 233.785 298.626 233.811 298.698C233.836 298.77 233.879 298.836 233.935 298.888C234.27 299.186 235.165 299.237 236.374 299.033C235.669 298.658 234.906 298.404 234.117 298.283Z" fill="#407BFF"/>
<path d="M236.781 299.208H236.723C236.075 298.917 234.787 297.752 234.889 297.119C234.889 296.973 235.02 296.791 235.376 296.755C235.507 296.741 235.638 296.754 235.764 296.793C235.889 296.831 236.005 296.895 236.104 296.981C236.789 297.549 236.92 299.019 236.92 299.085C236.922 299.107 236.919 299.129 236.91 299.15C236.901 299.17 236.887 299.188 236.869 299.201C236.841 299.213 236.81 299.215 236.781 299.208ZM235.478 297.024H235.398C235.165 297.024 235.151 297.141 235.143 297.17C235.085 297.541 235.959 298.466 236.599 298.866C236.536 298.244 236.282 297.656 235.871 297.185C235.761 297.09 235.623 297.034 235.478 297.024Z" fill="#407BFF"/>
<path d="M245.386 130.531C245.175 133.821 244.607 140.504 247.133 142.353C247.133 142.353 246.675 145.724 240.712 146.51C234.16 147.362 237.152 143.664 237.152 143.664C240.625 142.339 240.181 139.696 239.235 137.279L245.386 130.531Z" fill="#E4897B"/>
<path d="M231.823 124.714C231.787 124.714 231.752 124.706 231.719 124.691C231.687 124.676 231.657 124.654 231.634 124.627C231.426 124.38 231.163 124.185 230.866 124.059C230.568 123.932 230.246 123.877 229.923 123.899C229.889 123.905 229.854 123.904 229.821 123.896C229.787 123.888 229.755 123.874 229.727 123.854C229.699 123.833 229.676 123.807 229.658 123.777C229.641 123.748 229.629 123.714 229.625 123.68C229.617 123.612 229.636 123.543 229.678 123.488C229.72 123.434 229.782 123.398 229.851 123.389C230.262 123.354 230.675 123.42 231.055 123.579C231.436 123.739 231.772 123.988 232.035 124.306C232.066 124.344 232.086 124.39 232.093 124.439C232.099 124.488 232.092 124.538 232.071 124.583C232.051 124.628 232.018 124.666 231.977 124.693C231.935 124.72 231.887 124.735 231.838 124.736L231.823 124.714Z" fill="#263238"/>
<path d="M230.689 127.939C230.43 128.983 230.031 129.987 229.502 130.924C229.745 131.055 230.014 131.13 230.289 131.145C230.565 131.16 230.84 131.115 231.096 131.011L230.689 127.939Z" fill="#DE5753"/>
<path d="M230.98 127.138C231.038 127.575 230.856 127.954 230.572 127.997C230.288 128.041 230.004 127.706 229.953 127.269C229.902 126.833 230.077 126.454 230.361 126.418C230.645 126.381 230.929 126.672 230.98 127.138Z" fill="#263238"/>
<path d="M230.492 126.425L229.407 126.257C229.407 126.257 230.048 127.007 230.492 126.425Z" fill="#263238"/>
<path d="M242.78 299.092H237.32L236.956 286.461H242.416L242.78 299.092Z" fill="#E4897B"/>
<path d="M267.569 299.092H262.109L260.354 286.461H265.814L267.569 299.092Z" fill="#E4897B"/>
<path d="M261.773 298.48H267.903C268.008 298.479 268.109 298.516 268.188 298.585C268.267 298.653 268.318 298.748 268.333 298.851L269.061 303.707C269.074 303.829 269.061 303.953 269.023 304.07C268.985 304.188 268.923 304.295 268.841 304.387C268.758 304.478 268.657 304.551 268.545 304.601C268.432 304.651 268.31 304.676 268.187 304.675C266.054 304.639 265.02 304.515 262.327 304.515C260.667 304.515 258.243 304.683 255.957 304.683C253.671 304.683 253.547 302.418 254.501 302.215C258.774 301.297 259.451 300.031 260.885 298.815C261.136 298.607 261.448 298.489 261.773 298.48Z" fill="#263238"/>
<path d="M237.138 298.48H243.26C243.366 298.479 243.468 298.516 243.548 298.584C243.628 298.652 243.681 298.747 243.697 298.851L244.425 303.707C244.438 303.829 244.426 303.953 244.388 304.07C244.35 304.188 244.288 304.295 244.205 304.387C244.123 304.478 244.022 304.551 243.909 304.601C243.797 304.651 243.675 304.676 243.551 304.675C241.418 304.639 240.385 304.515 237.691 304.515C236.031 304.515 232.595 304.683 230.309 304.683C228.023 304.683 227.899 302.418 228.853 302.215C233.127 301.297 234.808 300.031 236.25 298.815C236.5 298.607 236.813 298.489 237.138 298.48Z" fill="#263238"/>
<path d="M236.956 286.461L237.145 292.977H242.605L242.416 286.461H236.956Z" fill="#CE6F64"/>
<path d="M265.814 286.461H260.354L261.264 292.977H266.717L265.814 286.461Z" fill="#CE6F64"/>
<path d="M245.46 123.716C245.831 129.118 246.1 131.397 243.756 134.505C240.225 139.172 233.513 138.451 231.533 133.268C229.749 128.601 229.444 120.557 234.409 117.732C235.501 117.106 236.735 116.77 237.994 116.754C239.252 116.739 240.494 117.046 241.601 117.645C242.708 118.245 243.644 119.117 244.319 120.18C244.994 121.242 245.387 122.459 245.46 123.716Z" fill="#E4897B"/>
<path d="M248.604 128.732C251.632 130.421 253.882 126.257 253.882 126.257C253.882 126.257 248.451 126.847 248.939 123.615C249.58 119.327 246.507 114.114 238.805 114.784C238.376 114.82 237.968 114.871 237.568 114.937C236.761 114.555 235.849 114.456 234.98 114.657C234.11 114.858 233.334 115.346 232.777 116.043C230.593 116.225 227.645 118.832 229.647 122.275C229.787 121.879 230.005 121.516 230.288 121.205C230.455 123.221 232.217 126.425 234.415 126.636C234.888 129.395 233.054 132.591 233.687 135.474C234.626 139.631 241.637 140.57 241.637 140.57C241.395 140.051 241.305 139.474 241.377 138.906C241.45 138.338 241.681 137.801 242.045 137.359C246.806 139.543 249.944 137.41 249.944 137.41C246.697 136.202 247.679 134.047 247.679 134.047C248.801 134.545 250.071 134.588 251.224 134.169C252.376 133.749 253.321 132.899 253.86 131.797C252.782 131.849 251.711 131.586 250.779 131.042C249.846 130.499 249.091 129.696 248.604 128.732Z" fill="#263238"/>
<path d="M236.315 127.466C236.328 127.984 236.238 128.5 236.051 128.983C235.863 129.467 235.582 129.909 235.223 130.283C234.262 131.28 233.083 130.581 232.763 129.307C232.479 128.157 232.639 126.257 233.891 125.733C234.167 125.625 234.465 125.587 234.759 125.623C235.053 125.66 235.333 125.769 235.574 125.941C235.815 126.113 236.009 126.343 236.138 126.609C236.268 126.875 236.329 127.17 236.315 127.466Z" fill="#E4897B"/>
<path d="M240.851 177.792C240.851 177.792 242.234 213.726 245.524 234.824C248.174 251.874 259.946 291.71 259.946 291.71H267.386C267.386 291.71 261.249 253.235 259.902 236.382C256.495 193.728 265.341 184.57 256.99 175.688L240.851 177.792Z" fill="#263238"/>
<path d="M247.068 189.156C247.068 189.156 243.705 188.574 241.739 194.98C242.467 207.116 243.712 223.219 245.525 234.824C245.925 237.408 246.537 240.524 247.287 243.938C245.867 223.438 247.068 189.156 247.068 189.156Z" fill="#161F33"/>
<path d="M235.049 178.549C235.049 178.549 228.919 218.305 229.276 234.94C229.647 252.245 235.988 291.724 235.988 291.724H243.363C243.363 291.724 242.198 253.271 242.846 236.28C243.574 217.752 251.138 176.46 251.138 176.46L235.049 178.549Z" fill="#263238"/>
<path d="M268.464 292.059H258.571L257.799 288.74L268.391 288.813L268.464 292.059Z" fill="#407BFF"/>
<path opacity="0.2" d="M268.464 292.059H258.571L257.799 288.74L268.391 288.813L268.464 292.059Z" fill="black"/>
<path d="M256.619 142.361C259.466 142.637 263.79 150.725 263.79 150.725L256.605 156.236C256.605 156.236 250.657 151.017 251.363 148.083C252.098 145.032 253.889 142.106 256.619 142.361Z" fill="#407BFF"/>
<path opacity="0.1" d="M256.619 142.361C259.466 142.637 263.79 150.725 263.79 150.725L256.605 156.236C256.605 156.236 250.657 151.017 251.363 148.083C252.098 145.032 253.889 142.106 256.619 142.361Z" fill="black"/>
<path d="M254.472 145.84C253.746 145.645 252.995 145.561 252.244 145.593C251.862 146.389 251.567 147.224 251.363 148.083C250.635 150.995 256.605 156.236 256.605 156.236L257.136 155.829L254.472 145.84Z" fill="#407BFF"/>
<path opacity="0.3" d="M254.472 145.84C253.746 145.645 252.995 145.561 252.244 145.593C251.862 146.389 251.567 147.224 251.363 148.083C250.635 150.995 256.605 156.236 256.605 156.236L257.136 155.829L254.472 145.84Z" fill="black"/>
<path d="M232.61 153.608C230.535 158.857 228.351 164.193 226.611 169.457C226.495 169.792 226.4 170.112 226.298 170.44L226.051 171.248C225.983 171.486 225.983 171.738 226.051 171.976C226.462 172.886 227.114 173.666 227.936 174.233C230.113 175.794 232.484 177.064 234.991 178.011L234.335 180.69C231.252 180.283 228.271 179.311 225.541 177.822C223.861 176.924 222.493 175.538 221.617 173.847C221.114 172.766 220.94 171.561 221.115 170.381C221.132 170.237 221.156 170.094 221.188 169.952L221.261 169.646L221.384 169.093C221.472 168.722 221.559 168.365 221.654 168.001C222.382 165.089 223.314 162.322 224.296 159.578C225.279 156.833 226.306 154.125 227.463 151.424L232.61 153.608Z" fill="#E4897B"/>
<path d="M228.191 146.241C228.191 146.241 225.731 147.486 235.049 178.549L257.02 175.681C255.477 166.785 254.749 161.274 256.62 142.361C253.469 142.135 250.306 142.135 247.156 142.361C243.802 142.556 240.466 142.994 237.175 143.671C232.96 144.61 228.191 146.241 228.191 146.241Z" fill="#407BFF"/>
<path opacity="0.1" d="M228.191 146.241C228.191 146.241 225.731 147.486 235.049 178.549L257.02 175.681C255.477 166.785 254.749 161.274 256.62 142.361C253.469 142.135 250.306 142.135 247.156 142.361C243.802 142.556 240.466 142.994 237.175 143.671C232.96 144.61 228.191 146.241 228.191 146.241Z" fill="black"/>
<path d="M257.18 174.349L258.439 176.176C258.534 176.322 258.374 176.497 258.126 176.533L235.085 179.547C234.888 179.547 234.706 179.496 234.677 179.372L234.226 177.428C234.189 177.297 234.35 177.159 234.568 177.13L256.816 174.218C256.883 174.207 256.951 174.214 257.015 174.237C257.078 174.259 257.135 174.298 257.18 174.349Z" fill="#407BFF"/>
<path opacity="0.2" d="M257.18 174.349L258.439 176.176C258.534 176.322 258.374 176.497 258.126 176.533L235.085 179.547C234.888 179.547 234.706 179.496 234.677 179.372L234.226 177.428C234.189 177.297 234.35 177.159 234.568 177.13L256.816 174.218C256.883 174.207 256.951 174.214 257.015 174.237C257.078 174.259 257.135 174.298 257.18 174.349Z" fill="black"/>
<path d="M254.516 177.225L255.113 177.145C255.229 177.145 255.309 177.057 255.295 176.984L254.683 174.466C254.66 174.423 254.623 174.389 254.578 174.37C254.533 174.352 254.483 174.349 254.436 174.364L253.839 174.436C253.715 174.436 253.635 174.524 253.657 174.604L254.268 177.116C254.283 177.196 254.399 177.239 254.516 177.225Z" fill="#263238"/>
<path d="M240.072 179.088L240.669 179.008C240.786 179.008 240.873 178.921 240.851 178.848L240.24 176.329C240.216 176.286 240.179 176.253 240.134 176.233C240.09 176.213 240.04 176.209 239.992 176.22L239.395 176.3C239.279 176.3 239.191 176.387 239.213 176.46L239.825 178.979C239.839 179.088 239.956 179.132 240.072 179.088Z" fill="#263238"/>
<path d="M229.218 156.782C229.822 159.592 230.674 163.152 231.919 167.659L232.188 156.236L229.218 156.782Z" fill="#407BFF"/>
<path opacity="0.3" d="M229.218 156.782C229.822 159.592 230.674 163.152 231.919 167.659L232.188 156.236L229.218 156.782Z" fill="black"/>
<path d="M228.191 146.241C225.461 147.34 223.095 156.68 223.095 156.68L232.486 161.252C232.486 161.252 237.021 149.83 234.99 147.602C232.959 145.375 231.336 144.981 228.191 146.241Z" fill="#407BFF"/>
<path opacity="0.1" d="M228.191 146.241C225.461 147.34 223.095 156.68 223.095 156.68L232.486 161.252C232.486 161.252 237.021 149.83 234.99 147.602C232.959 145.375 231.336 144.981 228.191 146.241Z" fill="black"/>
<path d="M244.622 292.059H234.729L233.957 288.74L244.972 288.813L244.622 292.059Z" fill="#407BFF"/>
<path opacity="0.2" d="M244.622 292.059H234.729L233.957 288.74L244.972 288.813L244.622 292.059Z" fill="black"/>
<path d="M235.143 177.108L234.35 176.78C234.155 176.701 233.942 176.675 233.734 176.704C233.525 176.733 233.328 176.817 233.162 176.948C232.997 177.078 232.869 177.249 232.791 177.445C232.713 177.641 232.688 177.853 232.719 178.062L233.294 181.854C233.322 182.044 233.391 182.226 233.497 182.385C233.604 182.545 233.744 182.679 233.908 182.778C234.073 182.877 234.257 182.938 234.448 182.957C234.639 182.976 234.832 182.953 235.012 182.888C235.301 182.783 235.571 182.634 235.813 182.444C236.076 182.226 236.285 181.949 236.421 181.635C236.558 181.322 236.619 180.98 236.599 180.639L236.519 179.066C236.505 178.641 236.368 178.23 236.123 177.882C235.879 177.534 235.538 177.265 235.143 177.108Z" fill="#E4897B"/>
</svg>
